<?xml version="1.0" encoding="utf-8"?>
<!-- Generator: Adobe Illustrator 23.0.6, SVG Export Plug-In . SVG Version: 6.00 Build 0)  -->
<svg version="1.1" id="Layer_1" xmlns="http://www.w3.org/2000/svg" xmlns:xlink="http://www.w3.org/1999/xlink" x="0px" y="0px"
	 viewBox="0 0 79 34" style="enable-background:new 0 0 79 34;" xml:space="preserve">
<style type="text/css">
	.st0{fill:#FFFFFF;}
</style>
<path class="st0" d="M77.6,25.24h-4l0.66-2.65h-8.02l-0.66,2.65H61.7v-0.54c0.06-0.3,0.11-0.61,0.19-0.95
	c0.71-2.85,2.58-5.68,5.82-5.68c1.28,0,2.56,0.49,2.38,2.26h4.77c0.19-0.83,0.5-2.24-0.4-3.54c-1.02-1.41-3.07-1.97-5.72-1.97
	c-1.89,0-4.65,0.3-7.04,1.86V2.29h15.9V25.24 M68.22,29.11c-0.91,0.16-1.81,0.27-2.67,0.27c-2.29,0-3.89-1.07-3.92-3.55h7.41
	L68.22,29.11z M59.06,16l-0.01,3.29c-1.11,1.53-1.8,3.2-2.12,4.55c-0.12,0.47-0.21,0.93-0.25,1.39h-2.34l2-9.48l-6.72-0.01
	l-6.02,9.48h-0.44V2.29h15.89V16z M50.18,25.24h-2.39l3.62-5.69L50.18,25.24z M40.53,15.74h-3.98l-2.73,9.5h-4.22
	c2.15-0.79,3.46-2.31,3.86-4.57c0.33-1.75,0.17-2.9-0.54-3.76c-1.07-1.28-3.22-1.17-5.12-1.17c-0.33,0-3.15,0.01-3.15,0.01V2.29
	h15.88V15.74z M37.99,25.24l1.67-5.94l0.06,5.94H37.99z M26.42,22.98L26.42,22.98C26.26,22.98,26.11,23,25.93,23
	c-0.23,0-0.41,0.01-0.58,0.01L24.33,23l0.47-1.74l0.22-0.86l0.53-2.02c0.24,0,0.47-0.01,0.69-0.01c0.26,0,0.53,0,0.79,0
	c1.34,0,2.19,0.08,2.5,0.51c0.24,0.32,0.21,0.89-0.07,1.74C28.98,22.08,28.38,22.83,26.42,22.98 M22.01,16.58l-0.25,0.82l-2.27,7.56
	l-0.09,0.27h-7.48L11.33,24l8.07-8.24h-5.18L7.9,22.55l2.04-6.79H6.12V2.29h15.88V16.58z M61.1,1.67v15.44
	c-0.54,0.43-1,0.88-1.43,1.37V1.67H42.56v14.06h-1.42V1.67H24.04v14.08h-1.42V1.67H5.51v16.05L1.15,32.28h3.84l1.93-6.45h0.55
	l3.18,6.45h4.64l-3.09-6.45h7.01l-1.95,6.45h4.2l1.92-6.43h0.92v-0.02h9.34l-1.85,6.43h4.23l1.8-6.43h1.9l0.05,6.43h3.55l4.07-6.43
	h2.67l-1.38,6.43h4.16l1.35-6.43h2.41c-0.1,1.99,0.41,3.8,1.74,5.02c1.61,1.48,4.09,1.77,5.93,1.77c2.51,0,5.11-0.36,7.74-0.95
	l1.44-5.84h4.75V1.67H61.1z"/>
</svg>
